<svg width="32" height="32" viewBox="0 0 32 32" fill="none" xmlns="http://www.w3.org/2000/svg">
<path d="M25.333 12.8265C25.333 16.2665 23.6397 18.9132 21.0637 20.6558C20.4637 21.0612 20.1637 21.2638 20.0157 21.4958C19.869 21.7252 19.817 22.0292 19.717 22.6345L19.637 23.1052C19.461 24.1692 19.3717 24.7012 18.9983 25.0172C18.625 25.3332 18.0863 25.3332 17.0077 25.3332H13.525C12.4463 25.3332 11.9077 25.3332 11.5343 25.0172C11.161 24.7012 11.073 24.1692 10.8943 23.1052L10.817 22.6345C10.7157 22.0305 10.6663 21.7278 10.5197 21.4985C10.373 21.2692 10.0717 21.0638 9.47034 20.6532C6.92234 18.9105 5.33301 16.2652 5.33301 12.8265C5.33301 7.21718 9.81034 2.66651 15.333 2.66651C16.0048 2.6658 16.675 2.73371 17.333 2.86918" stroke="white" stroke-width="1.5" stroke-linecap="round" stroke-linejoin="round"/>
<path d="M17.9993 25.3332V26.6665C17.9993 27.9238 17.9993 28.5518 17.6087 28.9425C17.218 29.3332 16.59 29.3332 15.3327 29.3332C14.0753 29.3332 13.4473 29.3332 13.0567 28.9425C12.666 28.5518 12.666 27.9238 12.666 26.6665V25.3332M21.9993 2.6665L22.3433 3.59584C22.794 4.8145 23.0193 5.42384 23.4633 5.86784C23.9087 6.31317 24.518 6.5385 25.7367 6.98917L26.666 7.33317L25.7367 7.67717C24.518 8.12784 23.9087 8.35317 23.4647 8.79717C23.0194 9.2425 22.794 9.85184 22.3433 11.0705L21.9993 11.9998L21.6553 11.0705C21.2047 9.85184 20.9793 9.2425 20.5353 8.7985C20.09 8.35317 19.4807 8.12784 18.262 7.67717L17.3327 7.33317L18.262 6.98917C19.4807 6.5385 20.09 6.31317 20.534 5.86917C20.9793 5.42384 21.2047 4.8145 21.6553 3.59584L21.9993 2.6665Z" stroke="white" stroke-width="1.5" stroke-linejoin="round"/>
</svg>
