<svg width="28" height="28" viewBox="0 0 28 28" fill="none" xmlns="http://www.w3.org/2000/svg">
<path d="M3.9375 22.75H24.0625M3.9375 22.75C3.5894 22.75 3.25556 22.6117 3.00942 22.3656C2.76328 22.1194 2.625 21.7856 2.625 21.4375M3.9375 22.75H5.6875C6.412 22.75 7 22.162 7 21.4375M24.0625 22.75C24.787 22.75 25.375 22.162 25.375 21.4375M24.0625 22.75H22.3125C21.9644 22.75 21.6306 22.6117 21.3844 22.3656C21.1383 22.1194 21 21.7856 21 21.4375M2.625 21.4375V6.5625M2.625 21.4375V19.6875C2.625 18.963 3.213 18.375 3.9375 18.375M7 21.4375V15.3125M7 21.4375C7 22.162 7.588 22.75 8.3125 22.75H19.6875C20.412 22.75 21 22.162 21 21.4375M7 21.4375V19.6875C7 18.963 6.412 18.375 5.6875 18.375M2.625 6.5625C2.625 5.838 3.213 5.25 3.9375 5.25M2.625 6.5625V8.3125C2.625 9.037 3.213 9.625 3.9375 9.625M3.9375 18.375C3.213 18.375 2.625 17.787 2.625 17.0625V15.3125C2.625 14.588 3.213 14 3.9375 14M3.9375 18.375H5.6875M25.375 21.4375V6.5625M25.375 21.4375V19.6875C25.375 18.963 24.787 18.375 24.0625 18.375M25.375 6.5625C25.375 5.838 24.787 5.25 24.0625 5.25M25.375 6.5625V8.3125C25.375 9.037 24.787 9.625 24.0625 9.625M24.0625 18.375C24.787 18.375 25.375 17.787 25.375 17.0625V15.3125C25.375 14.588 24.787 14 24.0625 14M24.0625 18.375H22.3125M21 21.4375V15.3125M21 21.4375V19.6875C21 18.963 21.588 18.375 22.3125 18.375M24.0625 5.25H3.9375M24.0625 5.25H22.3125C21.588 5.25 21 5.838 21 6.5625M3.9375 5.25H5.6875C6.412 5.25 7 5.838 7 6.5625M21 6.5625C21 5.838 20.412 5.25 19.6875 5.25H8.3125C7.588 5.25 7 5.838 7 6.5625M21 6.5625V8.3125C21 8.6606 21.1383 8.99444 21.3844 9.24058C21.6306 9.48672 21.9644 9.625 22.3125 9.625M21 6.5625V12.6875M24.0625 9.625H22.3125M24.0625 9.625C24.787 9.625 25.375 10.213 25.375 10.9375V12.6875C25.375 13.412 24.787 14 24.0625 14M7 6.5625V8.3125C7 9.037 6.412 9.625 5.6875 9.625M7 6.5625V12.6875M3.9375 9.625H5.6875M3.9375 9.625C3.213 9.625 2.625 10.213 2.625 10.9375V12.6875C2.625 13.412 3.213 14 3.9375 14M5.6875 9.625C6.412 9.625 7 10.213 7 10.9375V12.6875M3.9375 14H5.6875M7 12.6875C7 13.0356 7.13828 13.3694 7.38442 13.6156C7.63056 13.8617 7.9644 14 8.3125 14M7 12.6875C7 13.412 6.412 14 5.6875 14M22.3125 9.625C21.588 9.625 21 10.213 21 10.9375V12.6875M21 12.6875C21 13.412 20.412 14 19.6875 14M21 12.6875C21 13.412 21.588 14 22.3125 14M24.0625 14H22.3125M8.3125 14H19.6875M8.3125 14C7.588 14 7 14.588 7 15.3125M19.6875 14C20.412 14 21 14.588 21 15.3125M7 15.3125V17.0625C7 17.787 6.412 18.375 5.6875 18.375M7 15.3125C7 14.588 6.412 14 5.6875 14M22.3125 14C21.588 14 21 14.588 21 15.3125M21 15.3125V17.0625C21 17.787 21.588 18.375 22.3125 18.375" stroke="#F4F0E9" stroke-width="1.5" stroke-linecap="round" stroke-linejoin="round"/>
</svg>
