<svg width="28" height="28" viewBox="0 0 28 28" fill="none" xmlns="http://www.w3.org/2000/svg">
<path d="M7.98024 21.6338H10.5362M8.79423 10.6278L10.0742 4.37583M16.0182 8.69183L17.2982 2.43983M2.73024 12.2538H25.6262V24.7178C25.6262 25.2483 25.4155 25.757 25.0404 26.132C24.6654 26.5071 24.1567 26.7178 23.6262 26.7178H4.72824C4.1978 26.7178 3.68909 26.5071 3.31402 26.132C2.93895 25.757 2.72824 25.2483 2.72824 24.7178L2.73024 12.2538ZM2.72824 12.2538L24.8402 6.32783L23.8802 2.74783C23.8125 2.49392 23.6953 2.25585 23.5355 2.04725C23.3756 1.83864 23.1762 1.66358 22.9487 1.53208C22.7212 1.40057 22.4699 1.3152 22.2094 1.28084C21.9488 1.24648 21.6841 1.26381 21.4302 1.33183L3.18224 6.22383C2.67025 6.36118 2.23373 6.69616 1.96859 7.15518C1.70346 7.6142 1.63139 8.1597 1.76824 8.67183L2.72824 12.2538Z" stroke="#F4F0E9" stroke-width="1.5" stroke-linecap="round" stroke-linejoin="round"/>
</svg>
